<svg width="428" height="237" viewBox="0 0 428 237" fill="none" xmlns="http://www.w3.org/2000/svg">
<path fill-rule="evenodd" clip-rule="evenodd" d="M243.807 0V18.6142H250.41V91.0501H259.082V68.7429H263.65V63.3547L273.641 68.7429H276.089V55.3423L288.043 35.9197L299.997 55.3423V100.913H305.608V109.769H313.888V73.6263H320.75L320.465 58.63H328.406V54.3349H336.452L337.69 28.3619L338.927 54.3349H340.475V58.63H342.563L341.798 98.7916H343.28V81.0731L359.916 68.7429V91.0501H376.553V73.6263H386.822V63.3547L404.414 78.9431V63.3547L428 84.2553V237H410.409H404.414H387.572H386.822H376.553H359.916H343.28H339.832H324.908H323.196H314.851H313.888H299.997H290.942H276.089H259.082H250.41H235.711H229.427H214.688H210.692H197.157H189.788H177.883H173.57H167.431H156.979H154.296H143.844H138.204H133.392H114.618H106.84H96.7236H86.6058H78.8169H76.4892H65.1894H62.1808H52V88.1382H60.0116L59.45 58.63H76.4892V15.9155H86.6058V24.9953H96.7236V33.3083H106.84V76.167H114.618V56.2403H117.388V54.0427H135.434V56.2403H138.204V97.7911H143.844V44.3898H146.615V42.1922H164.66V44.3898H167.431V75.1407H173.57V56.2403H176.341V54.0427H194.386V56.2403H197.157V63.3547L202.948 71.1819V84.3047H210.692V76.167H214.688V56.2403H229.427V44.443L235.711 37.7142V18.6142H242.314V0H243.807Z" fill="white" fill-opacity="0.2"/>
<path fill-rule="evenodd" clip-rule="evenodd" d="M305.06 102V112.603H300.828V153.864H295.269V141.157H292.341V138.088L285.938 141.157H284.369V133.524L276.707 122.461L269.045 133.524V159.482H265.448V164.527H260.141V143.939H255.742L255.926 135.397H250.836V132.95H245.679L244.885 118.156L244.092 132.95H243.1V135.397H241.761L242.252 158.274H241.302V148.181L230.639 141.157V153.864H219.975V143.939H213.393V138.088L202.118 146.968V138.088L187 149.994V237H198.275H202.118H212.913H213.393H219.975H230.639H241.302H243.512H253.078H254.175H259.524H260.141H269.045H274.848H284.369H295.269H300.828H310.249H314.277H323.724H326.285H334.96H339.684H347.314H350.078H354.014H360.713H362.433H369.132H372.747H375.831H387.864H392.85H399.334H405.819H410.811H412.303H419.546H421.475H428V152.205H422.865L423.225 135.397H412.303V111.066H405.819V116.238H399.334V120.973H392.85V145.386H387.864V134.036H386.089V132.784H374.522V134.036H372.747V157.704H369.132V127.285H367.356V126.034H355.79V127.285H354.014V144.802H350.078V134.036H348.303V132.784H336.737V134.036H334.96V138.088L331.249 142.547V150.022H326.285V145.386H323.724V134.036H314.277V127.316L310.249 123.483V112.603H306.017V102H305.06Z" fill="white" fill-opacity="0.2"/>
<path fill-rule="evenodd" clip-rule="evenodd" d="M91.6064 102V112.603H88.3227V153.864H84.0096V141.157H81.738V138.088L76.769 141.157H75.5517V133.524L69.6063 122.461L63.6612 133.524V159.482H60.8704V164.527H56.7524V143.939H53.3396L53.4817 135.397H49.5323V132.95H45.5307L44.9149 118.156L44.2995 132.95H43.5298V135.397H42.4913L42.8718 158.274H42.1347V148.181L33.8609 141.157V153.864H25.5868V143.939H20.4793V138.088L11.7304 146.968V138.088L0 149.994V237H187V152.205H183.015L183.295 135.397H174.821V111.066H169.789V116.238H164.757V120.973H159.726V145.386H155.857V134.036H154.48V132.784H145.505V134.036H144.127V157.704H141.322V127.285H139.944V126.034H130.97V127.285H129.591V144.802H126.538V134.036H125.16V132.784H116.186V134.036H114.807V138.088L111.927 142.547V150.022H108.076V145.386H106.089V134.036H98.7583V127.316L95.6332 123.483V112.603H92.3492V102H91.6064Z" fill="white" fill-opacity="0.2"/>
</svg>
